# OBJ written from C:\Users\AR2R\Documents\TowerLocked\Objetcs\Princess\sword.obj
# Units	meters

o miecz
v 0 -0.00529217 0.000602014
v 0 -0.47763 0.00190896
v 0 -0.00529217 0.031398
v 0 -0.47763 0.030091
v -0.00212482 -0.00529217 0.0203105
v -0.00276083 -0.00529217 0.0219548
v -0.00276083 -0.00529217 0.0100452
v -0.00212482 -0.00529217 0.0116895
v 0.00212482 -0.00529217 0.0116895
v 0.00276083 -0.00529217 0.0100452
v 0.00276083 -0.00529217 0.0219548
v 0.00212482 -0.00529217 0.0203105
v 0 -0.455909 0.000602014
v 0 -0.455909 0.031398
v 0.00212482 -0.455909 0.0203105
v 0.00276083 -0.455909 0.0219548
v 0.00276083 -0.455909 0.0100452
v 0.00212482 -0.455909 0.0116895
v -0.00212482 -0.00529217 0.016
v 0.00212482 -0.00529217 0.016
v -0.00212482 -0.455909 0.016
v 0.00212482 -0.455909 0.016
v 0 -0.494792 0.016
v 0.00457649 0.00660852 0.00915722
v 0.00457649 0.00660852 0.0228428
v -0.00457649 0.00660852 0.0228428
v -0.00457649 0.00660852 0.00915722
v 0.0065631 0.00660852 0.016
v -0.0065631 0.00660852 0.016
v 0 0.00660852 0.00697672
v 0 0.00660852 0.0250233
v 0.00615438 0.00924686 0.016
v -0.00615438 0.00924686 0.016
v 0 0.00924686 0.00753871
v 0 0.00924686 0.0244613
v 0.00429156 0.00924686 0.0224164
v -0.00429156 0.00924686 0.00958362
v 0.00429156 0.00924686 0.00958362
v -0.00429156 0.00924686 0.0224164
v 0.0052793 0.0096903 0.016
v -0.0052793 0.0096903 0.016
v 0 0.0096903 0.00874195
v 0 0.0096903 0.0232581
v 0.0036811 0.0096903 0.021504
v -0.0036811 0.0096903 0.010496
v 0.0036811 0.0096903 0.010496
v -0.0036811 0.0096903 0.021504
v 0.0052793 0.0738019 0.016
v -0.0052793 0.0738019 0.016
v 0 0.0738019 0.00874195
v 0 0.0738019 0.0232581
v 0.0036811 0.0738019 0.021504
v -0.0036811 0.0738019 0.010496
v 0.0036811 0.0738019 0.010496
v -0.0036811 0.0738019 0.021504
v 0 0.0758327 0.00675391
v -0.00929608 0.0758327 0.01605
v 0 0.0758327 0.0253461
v 0.00929608 0.0758327 0.01605
v 0 0.0897394 0.00391861
v -0.0121314 0.0897394 0.01605
v 0 0.0897394 0.0281814
v 0.0121314 0.0897394 0.01605
v 0 0.0974 0.01605
v -0.00639106 0.0760004 0.00965894
v -0.00639106 0.0760004 0.0224411
v 0.00639106 0.0760004 0.0224411
v 0.00639106 0.0760004 0.00965894
v 0 0.0807654 0.00240218
v -0.0136478 0.0807654 0.01605
v -0.00834033 0.0895205 0.00770967
v -0.00909854 0.0807654 0.00695146
v 0 0.0807654 0.0296978
v -0.00834033 0.0895205 0.0243903
v -0.00909854 0.0807654 0.0251485
v 0.0136478 0.0807654 0.01605
v 0.00834033 0.0895205 0.0243903
v 0.00909854 0.0807654 0.0251485
v 0.00834033 0.0895205 0.00770967
v 0.00909854 0.0807654 0.00695146
v -0.00758212 0.095649 0.01605
v 0 0.095649 0.00846788
v -0.0060657 0.0947735 0.0099843
v 0 0.095649 0.0236321
v -0.0060657 0.0947735 0.0221157
v 0.00758212 0.095649 0.01605
v 0.0060657 0.0947735 0.0221157
v 0.0060657 0.0947735 0.0099843
v 0.00596836 0.00499395 0.00272708
v 0.00596836 -0.0066978 0.00272708
v 0 0.00499395 -0.0231277
v 0 -0.0066978 -0.0231277
v -0.00596836 0.00499395 0.0292729
v -0.00596836 -0.0066978 0.0292729
v 0 0.00499395 0.0551277
v 0 -0.0066978 0.0551277
v -0.00596836 -0.0066978 0.00272708
v -0.00596836 0.00499395 0.00272708
v -0.00633582 0.00499395 0.016
v -0.00633582 -0.0066978 0.016
v 0.00596836 -0.0066978 0.0292729
v 0.00596836 0.00499395 0.0292729
v 0.00633582 0.00499395 0.016
v 0.00633582 -0.0066978 0.016
v 0.00129428 -0.0066978 -0.0229758
v 0.00129428 0.00499395 -0.0229758
v 0.00266716 0.00499395 -0.0215629
v 0.00266716 -0.0066978 -0.0215629
v -0.00266716 -0.0066978 -0.0215629
v -0.00266716 0.00499395 -0.0215629
v -0.00129428 0.00499395 -0.0229758
v -0.00129428 -0.0066978 -0.0229758
v -0.00129428 -0.0066978 0.0549758
v -0.00129428 0.00499395 0.0549758
v -0.00266716 0.00499395 0.0535629
v -0.00266716 -0.0066978 0.0535629
v 0.00266716 -0.0066978 0.0535629
v 0.00266716 0.00499395 0.0535629
v 0.00129428 0.00499395 0.0549758
v 0.00129428 -0.0066978 0.0549758
v -0.00633582 0.00749395 0.016
v 0.00633582 0.00749395 0.016
v 0.00596836 0.00549395 0.00272708
v 0.00396836 0.00749395 0.00272708
v 0.00602371 0.00749395 0.00472631
v -0.00596836 0.00549395 0.0292729
v -0.00396836 0.00749395 0.0292729
v -0.00602371 0.00749395 0.0272737
v -0.00596836 0.00549395 0.00272708
v -0.00602371 0.00749395 0.00472631
v -0.00396836 0.00749395 0.00272708
v 0.00596836 0.00549395 0.0292729
v 0.00602371 0.00749395 0.0272737
v 0.00396836 0.00749395 0.0292729
v 0.00212482 -0.471718 0.016
v -0.00212482 -0.471718 0.016
v -0.00276083 -0.455909 0.0219548
v -0.00212482 -0.455909 0.0203105
v -0.00212482 -0.455909 0.0116895
v -0.00276083 -0.455909 0.0100452
v 0.00212482 -0.397245 0.0203105
v 0.00276083 -0.398404 0.0219548
v 0.00276083 -0.390006 0.0100452
v 0.00212482 -0.391166 0.0116895
v 0 -0.405063 0.031398
v 0.00212482 -0.394205 0.016
v -0.00276083 -0.398404 0.0219548
v -0.00212482 -0.394205 0.016
v -0.00212482 -0.397245 0.0203105
v -0.00212482 -0.391166 0.0116895
v -0.00276083 -0.390006 0.0100452
v 0.00210083 -0.388414 0.00778776
v 0.000496193 -0.38522 0.00325692
v 0 -0.391619 0.000602014
v -4.06576e-020 -0.39038 0.0010768
v -0.000496193 -0.38522 0.00325692
v -0.00204971 -0.388291 0.00761288
v 0 -0.375076 0.000602014
v -1.35525e-020 -0.376846 0.000853982
vn -0.162573 0.925831 0.341185
vn 0.448063 0.884488 0.130083
vn 0.162573 0.925831 -0.341185
vn 0.448063 0.884488 -0.130083
vn -0.448063 0.884488 0.130083
vn 0.162573 0.925831 0.341185
vn -0.448063 0.884488 -0.130083
vn -0.162573 0.925831 -0.341185
vn -0.442192 0.149443 -0.884383
vn -0.351077 -0.619455 -0.702154
vn -0.702154 -0.619455 -0.351077
vn -0.884383 0.149444 -0.442192
vn -0.884383 0.149444 0.442191
vn -0.702154 -0.619455 0.351077
vn -0.351077 -0.619455 0.702154
vn -0.442191 0.149443 0.884383
vn 0.442191 0.149443 0.884383
vn 0.351077 -0.619455 0.702154
vn 0.702154 -0.619455 0.351077
vn 0.884383 0.149444 0.442191
vn 0.884383 0.149444 -0.442192
vn 0.702154 -0.619455 -0.351077
vn 0.351077 -0.619455 -0.702154
vn 0.442192 0.149443 -0.884383
vn -0.352102 0.570932 -0.741661
vn -0.741661 0.570932 -0.352102
vn -0.219528 0.950586 -0.219528
vn -0.741661 0.570932 0.352102
vn -0.352101 0.570932 0.741661
vn -0.219528 0.950586 0.219528
vn 0.352101 0.570932 0.741661
vn 0.741661 0.570932 0.352102
vn 0.219528 0.950586 0.219528
vn 0.741661 0.570932 -0.352102
vn 0.352102 0.570932 -0.741661
vn 0.219528 0.950586 -0.219528
vn -0.319374 -0.676521 0.663566
vn -0.437742 -0.871303 0.221838
vn -0.441968 -0.868693 -0.223691
vn -0.325421 -0.659239 -0.677868
vn 0.325421 -0.659239 -0.677868
vn 0.441968 -0.868693 -0.223691
vn 0.437742 -0.871303 0.221838
vn 0.319374 -0.676521 0.663566
vn 0.116607 0 -0.993178
vn -0.116607 0 0.993178
vn -0.116607 -0 -0.993178
vn 0.116607 0 0.993178
vn 0.717175 0 -0.696893
vn -0.717175 0 -0.696893
vn -0.717175 0 0.696893
vn -0.990891 -0 -0.13467
vn 0.990891 0 -0.13467
vn 0 1 0
vn -0.990891 0 0.13467
vn 0.717175 0 0.696893
vn 0.990891 0 0.13467
vn -0.999617 0 0.027674
vn 0.999617 0 0.027674
vn 0.999617 0 -0.027674
vn -0.999617 -0 -0.027674
vn 0 -1 0
vn 0.57195 0.57195 -0.588003
vn -0.57195 0.57195 0.588003
vn -0.57195 0.57195 -0.588003
vn 0.57195 0.57195 0.588003
vn -0.999617 0 -0.027674
vn -0.999617 0 0.027674
vn 0 0 1
vn 0.999617 0 0.027674
vn 0.999617 0 -0.027674
vn 0 0 -1
vn 0.989318 -0.00875518 0.145509
vn 0.989318 -0.00875519 -0.145509
vn 0.989633 -0.0911331 -0.110997
vn 0.989633 -0.0911331 0.110997
vn 0.928182 0.0978873 -0.359021
vn 1 0 0
vn 0.928182 0.0978873 0.359021
vn -0.959684 -0.016882 0.280575
vn -0.990672 -0.0864686 0.105316
vn -1 0 0
vn -0.928182 0.0978873 -0.359021
vn -0.959684 -0.0168821 -0.280575
vn -0.990672 -0.0864686 -0.105316
vn -0.928182 0.0978873 0.359021
vn 0.422386 0.188893 -0.886515
vn -0.949892 0.147153 0.275775
vn -0.42239 0.188838 -0.886525
vn 0.42239 0.188838 0.886525
vn -0.949892 0.147153 -0.275775
vn 0.949892 0.147153 -0.275775
vn 0.949892 0.147153 0.275775
vn -0.42239 0.188838 0.886525
vn -0.960333 0 0.278854
vn 0.430171 0 -0.902748
vn -0.430171 0 0.902748
vn -0.960333 -0 -0.278854
vn 0.960333 0 -0.278854
vn -0.430171 -0 -0.902748
vn 0.430171 0 0.902748
vn 0.960333 0 0.278854
vn 0.932661 0 -0.360754
vn 0.932661 0 -0.360754
vn 0.932661 0 0.360754
vn 0.959821 0 0.280615
vn -0.959821 0 0.280615
vn -0.932661 -0 -0.360754
vn -0.932661 0 -0.360754
vn -0.932661 0 0.360754
vn -0.923988 -0.0538935 -0.378604
vn 0.358246 0.333921 -0.87187
vn -0.949711 0.0398943 -0.310576
vn 0.930006 -0.0494059 -0.364209
vn 0.959821 0 -0.280615
vn 0.959821 0 -0.280615
vn -0.959821 -0 -0.280615
vn 0 0.389195 -0.921156
vn -0 -0.275831 -0.961206
vt 0.0764559 0.0306779
vt 0.0691938 0.0246631
vt 0.0714979 0.0236645
vt 0.0776811 0.0287294
vt 0.0691938 0.0154468
vt 0.0793292 0.00707245
vt 0.0800529 0.00884262
vt 0.0714842 0.015862
vt 0.0924791 0.0055
vt 0.0997447 0.0115158
vt 0.0974397 0.0125147
vt 0.091254 0.00744933
vt 0.0888809 0.0273389
vt 0.089604 0.029109
vt 0.0997438 0.0207355
vt 0.0974524 0.0203196
vt 0.258363 0.0389517
vt 0.265712 0.0533316
vt 0.256231 0.0524294
vt 0.252389 0.0450735
vt 0.266411 0.0307056
vt 0.277669 0.0544176
vt 0.261784 0.0667454
vt 0.272202 0.0769717
vt 0.254115 0.0592291
vt 0.248416 0.0708698
vt 0.247354 0.0614684
vt 0.249639 0.0826944
vt 0.234029 0.063885
vt 0.226088 0.0720217
vt 0.239957 0.0578117
vt 0.226696 0.0496722
vt 0.236121 0.0505051
vt 0.214846 0.0487373
vt 0.230495 0.0362075
vt 0.220018 0.0260419
vt 0.238195 0.0436913
vt 0.243809 0.0319552
vt 0.244941 0.0414107
vt 0.242432 0.0200281
vt 0.251756 0.0519964
vt 0.24913 0.0484123
vt 0.249949 0.0551515
vt 0.246163 0.0514522
vt 0.246833 0.0570223
vt 0.2432 0.0544878
vt 0.240578 0.0509181
vt 0.242373 0.0477577
vt 0.245483 0.0458738
vt 0.243864 0.0973455
vt 0.217197 0.0811315
vt 0.293248 0.0974524
vt 0.292043 0.0479259
vt 0.275234 0.0216656
vt 0.248572 0.0055
vt 0.199031 0.0055
vt 0.200339 0.0548672
vt 0.23873 0.143029
vt 0.218232 0.143029
vt 0.218444 0.142687
vt 0.238942 0.142687
vt 0.237848 0.549647
vt 0.209533 0.549647
vt 0.210971 0.549347
vt 0.239286 0.549347
vt 0.239286 0.704077
vt 0.210971 0.704077
vt 0.209533 0.703776
vt 0.237848 0.703776
vt 0.238942 0.318759
vt 0.218444 0.318759
vt 0.218232 0.318417
vt 0.23873 0.318417
vt 0.238504 0.146207
vt 0.218007 0.146207
vt 0.208007 0.700983
vt 0.236322 0.700983
vt 0.236322 0.552441
vt 0.208007 0.552441
vt 0.232654 0.652956
vt 0.204339 0.652956
vt 0.237963 0.200859
vt 0.217465 0.200859
vt 0.0841468 0.0809504
vt 0.0944543 0.0809504
vt 0.0918014 0.0837004
vt 0.0893005 0.0839961
vt 0.0867997 0.0837004
vt 0.232654 0.600468
vt 0.204339 0.600468
vt 0.218007 0.315238
vt 0.238504 0.315238
vt 0.237963 0.260586
vt 0.217465 0.260586
vt 0.24225 0.552441
vt 0.240724 0.549647
vt 0.232245 0.626712
vt 0.203931 0.626712
vt 0.237902 0.230723
vt 0.217404 0.230723
vt 0.245919 0.600468
vt 0.0777679 0.0336722
vt 0.100833 0.0336722
vt 0.2193 0.374779
vt 0.225327 0.324743
vt 0.235067 0.324743
vt 0.241094 0.374779
vt 0.218629 0.40212
vt 0.241765 0.40212
vt 0.241094 0.429462
vt 0.2193 0.429462
vt 0.235067 0.479498
vt 0.225327 0.479498
vt 0.23256 0.482409
vt 0.230197 0.482722
vt 0.227834 0.482409
vt 0.227834 0.321832
vt 0.230197 0.321519
vt 0.23256 0.321832
vt 0.238839 0.200859
vt 0.242674 0.200859
vt 0.242336 0.205357
vt 0.233865 0.600468
vt 0.240931 0.600468
vt 0.238647 0.604421
vt 0.233865 0.652956
vt 0.238647 0.649003
vt 0.240931 0.652956
vt 0.238839 0.260586
vt 0.242336 0.256088
vt 0.242674 0.260586
vt 0.2383 0.626712
vt 0.0344673 0.00727504
vt 0.0344673 0.0143191
vt 0.025992 0.0160941
vt 0.0238732 0.0160941
vt 0.0238732 0.0055
vt 0.025992 0.0055
vt 0.242285 0.230723
vt 0.0246683 0.0195238
vt 0.0246683 0.0265679
vt 0.016193 0.0283429
vt 0.0140742 0.0283429
vt 0.0140742 0.0177488
vt 0.016193 0.0177488
vt 0.24975 0.600468
vt 0.252035 0.604421
vt 0.252381 0.626712
vt 0.252035 0.649003
vt 0.24975 0.652956
vt 0.0203235 0.0398861
vt 0.0474085 0.0512688
vt 0.0364359 0.0828295
vt 0.017708 0.0828293
vt 0.0743016 0.0386271
vt 0.0775963 0.0814291
vt 0.058878 0.0823032
vt 0.047045 0.0055
vt 0.232541 0.546661
vt 0.248459 0.486726
vt 0.254938 0.486972
vt 0.232615 0.486422
vt 0.216769 0.48612
vt 0.210287 0.48612
vt 0.157086 0.0393249
vt 0.159958 0.0829976
vt 0.141449 0.0835595
vt 0.130445 0.0519927
vt 0.130351 0.0055
vt 0.291187 0.777198
vt 0.292154 0.836088
vt 0.275251 0.777664
vt 0.269016 0.777947
vt 0.307136 0.77669
vt 0.103839 0.040427
vt 0.119399 0.0838731
vt 0.101041 0.0841886
vt 0.314002 0.776605
vt 0.1626 0.0250794
vt 0.150971 0.0225604
vt 0.152875 0.0172921
vt 0.163047 0.0185722
vt 0.154022 0.00651102
vt 0.171452 0.0055
vt 0.170876 0.0117497
vt 0.155295 0.0112572
vt 0.143911 0.0150302
vt 0.147079 0.0146652
vt 0.183455 0.00763273
vt 0.1908 0.0150302
vt 0.187684 0.0154412
vt 0.181738 0.0130824
vt 0.180643 0.0236717
vt 0.179292 0.0188012
vt 0.22139 0.912412
vt 0.206199 0.912412
vt 0.206199 0.815146
vt 0.22139 0.815146
vt 0.279149 0.912412
vt 0.270024 0.912412
vt 0.270024 0.815146
vt 0.279149 0.815146
vt 0.230516 0.912412
vt 0.230516 0.815146
vt 0.191008 0.912412
vt 0.191008 0.815146
vt 0.254832 0.912412
vt 0.254832 0.815146
vt 0.181883 0.912412
vt 0.181883 0.815146
vt 0.239641 0.912412
vt 0.239641 0.815146
vt 0.249402 0.436643
vt 0.255863 0.43788
vt 0.255701 0.102027
vt 0.262181 0.102273
vt 0.209358 0.429802
vt 0.215855 0.430793
vt 0.203931 0.101041
vt 0.210413 0.101041
vt 0.0055 0.973343
vt 0.0163305 0.183312
vt 0.0348784 0.196471
vt 0.0242309 0.973343
vt 0.171356 0.99407
vt 0.171356 0.190568
vt 0.179203 0.196867
vt 0.179203 0.994089
vt 0.171356 0.0630879
vt 0.179203 0.0631066
vt 0.16351 0.994051
vt 0.16351 0.18427
vt 0.16351 0.0630694
vt 0.159958 0.185808
vt 0.159958 0.994145
vt 0.141379 0.9945
vt 0.14144 0.199807
vt 0.201401 0.160528
vt 0.201401 0.811628
vt 0.191642 0.811624
vt 0.191642 0.165573
vt 0.191642 0.0630734
vt 0.201401 0.0630775
vt 0.273917 0.732919
vt 0.267744 0.734083
vt 0.25905 0.434218
vt 0.265005 0.433966
vt 0.181883 0.81162
vt 0.181883 0.170618
vt 0.181883 0.0630694
vt 0.314002 0.715961
vt 0.307091 0.717113
vt 0.306819 0.362029
vt 0.314002 0.36194
vt 0.386051 0.62952
vt 0.422429 0.479627
vt 0.480864 0.429484
vt 0.3817 0.661569
vt 0.0816661 0.218595
vt 0.0818735 0.223024
vt 0.0760228 0.220896
vt 0.0816334 0.217489
vt 0.399935 0.3825
vt 0.395539 0.35913
vt 0.0820245 0.230673
vt 0.0820573 0.231778
vt 0.103984 0.970755
vt 0.0852657 0.971629
vt 0.0627371 0.212367
vt 0.108429 0.981574
vt 0.10229 0.2359
vt 0.107789 0.224545
vt 0.120471 0.215085
vt 0.126732 0.981051
vt 0.102171 0.221482
vt 0.43661 0.111621
vt 0.32443 0.0908013
vt 0.43661 0.0699804
vt 0.675003 0.0908013
mtllib sword.mtl
usemtl miecz
g Default
f 39/1/1 35/2/1 43/3/1 47/4/1
f 36/5/2 32/6/2 40/7/2 44/8/2
f 38/9/3 34/10/3 42/11/3 46/12/3
f 38/9/4 46/12/4 40/7/4 32/6/4
f 39/1/5 47/4/5 41/13/5 33/14/5
f 36/5/6 44/8/6 43/3/6 35/2/6
f 37/15/7 33/14/7 41/13/7 45/16/7
f 37/15/8 45/16/8 42/11/8 34/10/8
f 69/17/9 72/18/9 71/19/9 60/20/9
f 69/17/10 56/21/10 65/22/10 72/18/10
f 70/23/11 72/18/11 65/22/11 57/24/11
f 70/23/12 61/25/12 71/19/12 72/18/12
f 70/23/13 75/26/13 74/27/13 61/25/13
f 70/23/14 57/24/14 66/28/14 75/26/14
f 73/29/15 75/26/15 66/28/15 58/30/15
f 73/29/16 62/31/16 74/27/16 75/26/16
f 73/29/17 78/32/17 77/33/17 62/31/17
f 73/29/18 58/30/18 67/34/18 78/32/18
f 76/35/19 78/32/19 67/34/19 59/36/19
f 76/35/20 63/37/20 77/33/20 78/32/20
f 76/35/21 80/38/21 79/39/21 63/37/21
f 76/35/22 59/36/22 68/40/22 80/38/22
f 69/17/23 80/38/23 68/40/23 56/21/23
f 69/17/24 60/20/24 79/39/24 80/38/24
f 60/20/25 71/19/25 83/41/25 82/42/25
f 61/25/26 81/43/26 83/41/26 71/19/26
f 64/44/27 82/42/27 83/41/27 81/43/27
f 61/25/28 74/27/28 85/45/28 81/43/28
f 62/31/29 84/46/29 85/45/29 74/27/29
f 64/44/30 81/43/30 85/45/30 84/46/30
f 62/31/31 77/33/31 87/47/31 84/46/31
f 63/37/32 86/48/32 87/47/32 77/33/32
f 64/44/33 84/46/33 87/47/33 86/48/33
f 63/37/34 79/39/34 88/49/34 86/48/34
f 60/20/35 82/42/35 88/49/35 79/39/35
f 64/44/36 86/48/36 88/49/36 82/42/36
f 66/28/37 55/50/37 51/51/37 58/30/37
f 57/24/38 49/52/38 55/50/38 66/28/38
f 57/24/39 65/22/39 53/53/39 49/52/39
f 65/22/40 56/21/40 50/54/40 53/53/40
f 68/40/41 54/55/41 50/54/41 56/21/41
f 59/36/42 48/56/42 54/55/42 68/40/42
f 59/36/43 67/34/43 52/57/43 48/56/43
f 67/34/44 58/30/44 51/51/44 52/57/44
f 106/58/45 105/59/45 92/60/45 91/61/45
f 114/62/46 113/63/46 96/64/46 95/65/46
f 91/66/47 92/67/47 112/68/47 111/69/47
f 95/70/48 96/71/48 120/72/48 119/73/48
f 105/59/49 106/58/49 107/74/49 108/75/49
f 109/76/50 110/77/50 111/69/50 112/68/50
f 113/63/51 114/62/51 115/78/51 116/79/51
f 98/80/52 110/77/52 109/76/52 97/81/52
f 107/74/53 89/82/53 90/83/53 108/75/53
f 110/84/54 107/85/54 106/86/54 91/87/54 111/88/54
f 115/78/55 93/89/55 94/90/55 116/79/55
f 120/72/56 117/91/56 118/92/56 119/73/56
f 102/93/57 118/92/57 117/91/57 101/94/57
f 118/95/54 115/78/54 114/62/54 95/65/54 119/96/54
f 93/89/58 99/97/58 100/98/58 94/90/58
f 103/99/59 102/93/59 101/94/59 104/100/59
f 102/101/54 93/89/54 115/78/54 118/95/54
f 89/82/60 103/99/60 104/100/60 90/83/60
f 99/97/61 98/80/61 97/81/61 100/98/61
f 98/102/54 89/103/54 107/85/54 110/84/54
f 97/104/62 109/105/62 108/106/62 90/107/62
f 100/108/62 97/104/62 90/107/62 104/109/62
f 100/108/62 104/109/62 101/110/62 94/111/62
f 94/111/62 101/110/62 117/112/62 116/113/62
f 116/113/62 117/112/62 120/114/62 96/115/62 113/116/62
f 109/105/62 112/117/62 92/118/62 105/119/62 108/106/62
f 123/120/63 124/121/63 125/122/63
f 126/123/64 127/124/64 128/125/64
f 129/126/65 130/127/65 131/128/65
f 132/129/66 133/130/66 134/131/66
f 99/97/67 121/132/67 130/127/67 129/126/67 98/80/67
f 99/97/68 93/89/68 126/123/68 128/125/68 121/132/68
f 134/133/69 127/134/69 126/135/69 93/136/69 102/137/69 132/138/69
f 103/99/70 122/139/70 133/130/70 132/129/70 102/93/70
f 103/99/71 89/82/71 123/120/71 125/122/71 122/139/71
f 131/140/72 124/141/72 123/142/72 89/143/72 98/144/72 129/145/72
f 130/127/54 121/132/54 128/125/54 127/124/54 134/146/54 133/147/54 122/148/54 125/149/54 124/150/54 131/128/54
f 4/151/73 135/152/73 16/153/73 14/154/73
f 2/155/74 13/156/74 17/157/74 135/152/74
f 23/158/75 2/155/75 135/152/75
f 23/158/76 135/152/76 4/151/76
f 135/159/77 15/160/77 16/161/77
f 22/162/78 135/159/78 18/163/78
f 17/164/79 18/163/79 135/159/79
f 22/162/78 15/160/78 135/159/78
f 4/165/80 14/166/80 137/167/80
f 4/165/81 137/167/81 136/168/81 23/169/81
f 21/170/82 136/171/82 138/172/82
f 137/173/83 138/172/83 136/171/83
f 21/170/82 139/174/82 136/171/82
f 2/175/84 140/176/84 13/177/84
f 2/175/85 23/169/85 136/168/85 140/176/85
f 140/178/86 136/171/86 139/174/86
f 24/179/87 30/180/87 34/181/87 38/182/87
f 29/183/88 26/184/88 39/185/88 33/186/88
f 30/180/89 27/187/89 37/188/89 34/181/89
f 31/189/90 25/190/90 36/191/90 35/192/90
f 27/187/91 29/183/91 33/186/91 37/188/91
f 28/193/92 24/179/92 38/182/92 32/194/92
f 25/190/93 28/193/93 32/194/93 36/191/93
f 31/189/94 35/192/94 39/185/94 26/184/94
f 55/195/95 49/196/95 41/197/95 47/198/95
f 50/199/96 54/200/96 46/201/96 42/202/96
f 51/203/97 55/195/97 47/198/97 43/204/97
f 49/196/98 53/205/98 45/206/98 41/197/98
f 54/200/99 48/207/99 40/208/99 46/201/99
f 53/205/100 50/209/100 42/210/100 45/206/100
f 52/211/101 51/203/101 43/204/101 44/212/101
f 48/207/102 52/211/102 44/212/102 40/208/102
f 15/160/103 141/213/103 142/214/103 16/161/103
f 142/214/104 141/213/104 12/215/104 11/216/104
f 17/164/105 143/217/105 144/218/105 18/163/105
f 144/218/105 143/217/105 10/219/105 9/220/105
f 3/221/106 145/222/106 142/223/106 11/224/106
f 142/223/106 145/222/106 14/154/106 16/153/106
f 20/225/78 146/226/78 144/227/78 9/228/78
f 144/227/78 146/226/78 22/229/78 18/230/78
f 12/231/78 141/232/78 146/226/78 20/225/78
f 146/226/78 141/232/78 15/233/78 22/229/78
f 145/234/107 3/235/107 6/236/107 147/237/107
f 147/237/107 137/167/107 14/166/107 145/234/107
f 149/238/82 5/239/82 19/240/82 148/241/82
f 148/241/82 21/242/82 138/243/82 149/238/82
f 149/244/108 138/172/108 137/173/108 147/245/108
f 147/245/109 6/246/109 5/247/109 149/244/109
f 148/241/82 19/240/82 8/248/82 150/249/82
f 150/249/82 139/250/82 21/242/82 148/241/82
f 151/251/110 140/178/110 139/174/110 150/252/110
f 150/252/110 8/253/110 7/254/110 151/251/110
f 159/255/111 156/256/111 157/257/111 158/258/111
f 155/259/112 153/260/112 152/261/112 154/262/112
f 156/256/113 155/263/113 154/264/113 157/257/113
f 153/260/114 159/265/114 158/266/114 152/261/114
f 152/261/115 158/266/115 1/267/115 10/268/115 143/269/115
f 143/269/116 17/157/116 13/156/116 154/262/116 152/261/116
f 1/270/117 158/271/117 157/272/117 151/273/117 7/274/117
f 13/177/117 140/176/117 151/273/117 157/272/117 154/275/117
f 153/276/118 155/277/118 156/278/118
f 153/276/119 156/278/119 159/279/119
